<svg aria-roledescription="er" viewBox="0 0 535.2625732421875 452" style="max-width: 535.2625732421875px;" xmlns="http://www.w3.org/2000/svg" width="100%" id="mermaid-svg"><style>#mermaid-svg{font-family:"trebuchet ms",verdana,arial,sans-serif;font-size:16px;fill:#333;}#mermaid-svg .error-icon{fill:#552222;}#mermaid-svg .error-text{fill:#552222;stroke:#552222;}#mermaid-svg .edge-thickness-normal{stroke-width:2px;}#mermaid-svg .edge-thickness-thick{stroke-width:3.5px;}#mermaid-svg .edge-pattern-solid{stroke-dasharray:0;}#mermaid-svg .edge-pattern-dashed{stroke-dasharray:3;}#mermaid-svg .edge-pattern-dotted{stroke-dasharray:2;}#mermaid-svg .marker{fill:#333333;stroke:#333333;}#mermaid-svg .marker.cross{stroke:#333333;}#mermaid-svg svg{font-family:"trebuchet ms",verdana,arial,sans-serif;font-size:16px;}#mermaid-svg .entityBox{fill:#ECECFF;stroke:#9370DB;}#mermaid-svg .attributeBoxOdd{fill:#ffffff;stroke:#9370DB;}#mermaid-svg .attributeBoxEven{fill:#f2f2f2;stroke:#9370DB;}#mermaid-svg .relationshipLabelBox{fill:hsl(80, 100%, 96.2745098039%);opacity:0.7;background-color:hsl(80, 100%, 96.2745098039%);}#mermaid-svg .relationshipLabelBox rect{opacity:0.5;}#mermaid-svg .relationshipLine{stroke:#333333;}#mermaid-svg .entityTitleText{text-anchor:middle;font-size:18px;fill:#333;}#mermaid-svg :root{--mermaid-font-family:"trebuchet ms",verdana,arial,sans-serif;}</style><g></g><defs><marker orient="auto" markerHeight="18" markerWidth="18" refY="9" refX="0" id="ONLY_ONE_START"><path d="M9,0 L9,18 M15,0 L15,18" fill="none" stroke="gray"></path></marker></defs><defs><marker orient="auto" markerHeight="18" markerWidth="18" refY="9" refX="18" id="ONLY_ONE_END"><path d="M3,0 L3,18 M9,0 L9,18" fill="none" stroke="gray"></path></marker></defs><defs><marker orient="auto" markerHeight="18" markerWidth="30" refY="9" refX="0" id="ZERO_OR_ONE_START"><circle r="6" cy="9" cx="21" fill="white" stroke="gray"></circle><path d="M9,0 L9,18" fill="none" stroke="gray"></path></marker></defs><defs><marker orient="auto" markerHeight="18" markerWidth="30" refY="9" refX="30" id="ZERO_OR_ONE_END"><circle r="6" cy="9" cx="9" fill="white" stroke="gray"></circle><path d="M21,0 L21,18" fill="none" stroke="gray"></path></marker></defs><defs><marker orient="auto" markerHeight="36" markerWidth="45" refY="18" refX="18" id="ONE_OR_MORE_START"><path d="M0,18 Q 18,0 36,18 Q 18,36 0,18 M42,9 L42,27" fill="none" stroke="gray"></path></marker></defs><defs><marker orient="auto" markerHeight="36" markerWidth="45" refY="18" refX="27" id="ONE_OR_MORE_END"><path d="M3,9 L3,27 M9,18 Q27,0 45,18 Q27,36 9,18" fill="none" stroke="gray"></path></marker></defs><defs><marker orient="auto" markerHeight="36" markerWidth="57" refY="18" refX="18" id="ZERO_OR_MORE_START"><circle r="6" cy="18" cx="48" fill="white" stroke="gray"></circle><path d="M0,18 Q18,0 36,18 Q18,36 0,18" fill="none" stroke="gray"></path></marker></defs><defs><marker orient="auto" markerHeight="36" markerWidth="57" refY="18" refX="39" id="ZERO_OR_MORE_END"><circle r="6" cy="18" cx="9" fill="white" stroke="gray"></circle><path d="M21,18 Q39,0 57,18 Q39,36 21,18" fill="none" stroke="gray"></path></marker></defs><path style="stroke: gray; fill: none;" marker-start="url(#ONLY_ONE_START)" marker-end="url(#ZERO_OR_MORE_END)" d="M113.3248291015625,176L110.06962076822917,184.33333333333334C106.81441243489583,192.66666666666666,100.30399576822917,209.33333333333334,97.04878743489583,226C93.7935791015625,242.66666666666666,93.7935791015625,259.3333333333333,93.7935791015625,267.6666666666667L93.7935791015625,276" class="er relationshipLine"></path><path style="stroke: gray; fill: none;" marker-start="url(#ONLY_ONE_START)" marker-end="url(#ZERO_OR_MORE_END)" d="M440.8820571899414,143L440.8820571899414,156.83333333333334C440.8820571899414,170.66666666666666,440.8820571899414,198.33333333333334,434.7622655232747,227.83333333333334C428.6424738566081,257.3333333333333,416.4028905232747,288.6666666666667,410.2830988566081,304.3333333333333L404.1633071899414,320" class="er relationshipLine"></path><path style="stroke: gray; fill: none;" marker-start="url(#ONLY_ONE_START)" marker-end="url(#ZERO_OR_MORE_END)" d="M207.38722229003906,161.54331519768556L218.13851165771484,172.28609599807132C228.88980102539062,183.02887679845705,250.3923797607422,204.51443839922854,275.707194228967,230.92388586628093C301.0220086971919,257.3333333333333,330.14905889829,288.6666666666667,344.7125839988391,304.3333333333333L359.2761090993881,320" class="er relationshipLine"></path><g transform="translate(80.19993591308594,20 )" id="entity-PROJECT-87ae4487-4aa2-41dc-a9e2-d42aa142de05"><rect height="156" width="127.18728637695312" y="0" x="0" class="er entityBox"></rect><text style="dominant-baseline: middle; text-anchor: middle; font-size: 12px;" transform="translate(63.59364318847656,12)" y="0" x="0" id="text-entity-PROJECT-87ae4487-4aa2-41dc-a9e2-d42aa142de05" class="er entityLabel">PROJECT</text><rect height="22" width="35.71875" y="24" x="0" class="er attributeBoxOdd"></rect><text style="dominant-baseline: middle; font-size: 10.2px;" transform="translate(5,35)" y="0" x="0" id="text-entity-PROJECT-87ae4487-4aa2-41dc-a9e2-d42aa142de05-attr-1-type" class="er entityLabel">string</text><rect height="22" width="69.78781127929688" y="24" x="35.71875" class="er attributeBoxOdd"></rect><text style="dominant-baseline: middle; font-size: 10.2px;" transform="translate(40.71875,35)" y="0" x="0" id="text-entity-PROJECT-87ae4487-4aa2-41dc-a9e2-d42aa142de05-attr-1-name" class="er entityLabel">pCode</text><rect height="22" width="21.68072509765625" y="24" x="105.50656127929688" class="er attributeBoxOdd"></rect><text style="dominant-baseline: middle; font-size: 10.2px;" transform="translate(110.50656127929688,35)" y="0" x="0" id="text-entity-PROJECT-87ae4487-4aa2-41dc-a9e2-d42aa142de05-attr-1-key" class="er entityLabel">PK</text><rect height="22" width="35.71875" y="46" x="0" class="er attributeBoxEven"></rect><text style="dominant-baseline: middle; font-size: 10.2px;" transform="translate(5,57)" y="0" x="0" id="text-entity-PROJECT-87ae4487-4aa2-41dc-a9e2-d42aa142de05-attr-2-type" class="er entityLabel">string</text><rect height="22" width="69.78781127929688" y="46" x="35.71875" class="er attributeBoxEven"></rect><text style="dominant-baseline: middle; font-size: 10.2px;" transform="translate(40.71875,57)" y="0" x="0" id="text-entity-PROJECT-87ae4487-4aa2-41dc-a9e2-d42aa142de05-attr-2-name" class="er entityLabel">projectName</text><rect height="22" width="21.68072509765625" y="46" x="105.50656127929688" class="er attributeBoxEven"></rect><text style="dominant-baseline: middle; font-size: 10.2px;" transform="translate(110.50656127929688,57)" y="0" x="0" id="text-entity-PROJECT-87ae4487-4aa2-41dc-a9e2-d42aa142de05-attr-2-key" class="er entityLabel"></text><rect height="22" width="35.71875" y="68" x="0" class="er attributeBoxOdd"></rect><text style="dominant-baseline: middle; font-size: 10.2px;" transform="translate(5,79)" y="0" x="0" id="text-entity-PROJECT-87ae4487-4aa2-41dc-a9e2-d42aa142de05-attr-3-type" class="er entityLabel">string</text><rect height="22" width="69.78781127929688" y="68" x="35.71875" class="er attributeBoxOdd"></rect><text style="dominant-baseline: middle; font-size: 10.2px;" transform="translate(40.71875,79)" y="0" x="0" id="text-entity-PROJECT-87ae4487-4aa2-41dc-a9e2-d42aa142de05-attr-3-name" class="er entityLabel">description</text><rect height="22" width="21.68072509765625" y="68" x="105.50656127929688" class="er attributeBoxOdd"></rect><text style="dominant-baseline: middle; font-size: 10.2px;" transform="translate(110.50656127929688,79)" y="0" x="0" id="text-entity-PROJECT-87ae4487-4aa2-41dc-a9e2-d42aa142de05-attr-3-key" class="er entityLabel"></text><rect height="22" width="35.71875" y="90" x="0" class="er attributeBoxEven"></rect><text style="dominant-baseline: middle; font-size: 10.2px;" transform="translate(5,101)" y="0" x="0" id="text-entity-PROJECT-87ae4487-4aa2-41dc-a9e2-d42aa142de05-attr-4-type" class="er entityLabel">string</text><rect height="22" width="69.78781127929688" y="90" x="35.71875" class="er attributeBoxEven"></rect><text style="dominant-baseline: middle; font-size: 10.2px;" transform="translate(40.71875,101)" y="0" x="0" id="text-entity-PROJECT-87ae4487-4aa2-41dc-a9e2-d42aa142de05-attr-4-name" class="er entityLabel">ownerName</text><rect height="22" width="21.68072509765625" y="90" x="105.50656127929688" class="er attributeBoxEven"></rect><text style="dominant-baseline: middle; font-size: 10.2px;" transform="translate(110.50656127929688,101)" y="0" x="0" id="text-entity-PROJECT-87ae4487-4aa2-41dc-a9e2-d42aa142de05-attr-4-key" class="er entityLabel"></text><rect height="22" width="35.71875" y="112" x="0" class="er attributeBoxOdd"></rect><text style="dominant-baseline: middle; font-size: 10.2px;" transform="translate(5,123)" y="0" x="0" id="text-entity-PROJECT-87ae4487-4aa2-41dc-a9e2-d42aa142de05-attr-5-type" class="er entityLabel">string</text><rect height="22" width="69.78781127929688" y="112" x="35.71875" class="er attributeBoxOdd"></rect><text style="dominant-baseline: middle; font-size: 10.2px;" transform="translate(40.71875,123)" y="0" x="0" id="text-entity-PROJECT-87ae4487-4aa2-41dc-a9e2-d42aa142de05-attr-5-name" class="er entityLabel">dCode</text><rect height="22" width="21.68072509765625" y="112" x="105.50656127929688" class="er attributeBoxOdd"></rect><text style="dominant-baseline: middle; font-size: 10.2px;" transform="translate(110.50656127929688,123)" y="0" x="0" id="text-entity-PROJECT-87ae4487-4aa2-41dc-a9e2-d42aa142de05-attr-5-key" class="er entityLabel"></text><rect height="22" width="35.71875" y="134" x="0" class="er attributeBoxEven"></rect><text style="dominant-baseline: middle; font-size: 10.2px;" transform="translate(5,145)" y="0" x="0" id="text-entity-PROJECT-87ae4487-4aa2-41dc-a9e2-d42aa142de05-attr-6-type" class="er entityLabel">string</text><rect height="22" width="69.78781127929688" y="134" x="35.71875" class="er attributeBoxEven"></rect><text style="dominant-baseline: middle; font-size: 10.2px;" transform="translate(40.71875,145)" y="0" x="0" id="text-entity-PROJECT-87ae4487-4aa2-41dc-a9e2-d42aa142de05-attr-6-name" class="er entityLabel">status</text><rect height="22" width="21.68072509765625" y="134" x="105.50656127929688" class="er attributeBoxEven"></rect><text style="dominant-baseline: middle; font-size: 10.2px;" transform="translate(110.50656127929688,145)" y="0" x="0" id="text-entity-PROJECT-87ae4487-4aa2-41dc-a9e2-d42aa142de05-attr-6-key" class="er entityLabel"></text></g><g transform="translate(20,276 )" id="entity-DEPARTMENT-f31c08cc-ce57-4344-a12c-42fdb9124cbe"><rect height="156" width="147.587158203125" y="0" x="0" class="er entityBox"></rect><text style="dominant-baseline: middle; text-anchor: middle; font-size: 12px;" transform="translate(73.7935791015625,12)" y="0" x="0" id="text-entity-DEPARTMENT-f31c08cc-ce57-4344-a12c-42fdb9124cbe" class="er entityLabel">DEPARTMENT</text><rect height="22" width="35.71875" y="24" x="0" class="er attributeBoxOdd"></rect><text style="dominant-baseline: middle; font-size: 10.2px;" transform="translate(5,35)" y="0" x="0" id="text-entity-DEPARTMENT-f31c08cc-ce57-4344-a12c-42fdb9124cbe-attr-1-type" class="er entityLabel">string</text><rect height="22" width="90.18768310546875" y="24" x="35.71875" class="er attributeBoxOdd"></rect><text style="dominant-baseline: middle; font-size: 10.2px;" transform="translate(40.71875,35)" y="0" x="0" id="text-entity-DEPARTMENT-f31c08cc-ce57-4344-a12c-42fdb9124cbe-attr-1-name" class="er entityLabel">dCode</text><rect height="22" width="21.68072509765625" y="24" x="125.90643310546875" class="er attributeBoxOdd"></rect><text style="dominant-baseline: middle; font-size: 10.2px;" transform="translate(130.90643310546875,35)" y="0" x="0" id="text-entity-DEPARTMENT-f31c08cc-ce57-4344-a12c-42fdb9124cbe-attr-1-key" class="er entityLabel">PK</text><rect height="22" width="35.71875" y="46" x="0" class="er attributeBoxEven"></rect><text style="dominant-baseline: middle; font-size: 10.2px;" transform="translate(5,57)" y="0" x="0" id="text-entity-DEPARTMENT-f31c08cc-ce57-4344-a12c-42fdb9124cbe-attr-2-type" class="er entityLabel">string</text><rect height="22" width="90.18768310546875" y="46" x="35.71875" class="er attributeBoxEven"></rect><text style="dominant-baseline: middle; font-size: 10.2px;" transform="translate(40.71875,57)" y="0" x="0" id="text-entity-DEPARTMENT-f31c08cc-ce57-4344-a12c-42fdb9124cbe-attr-2-name" class="er entityLabel">departmentName</text><rect height="22" width="21.68072509765625" y="46" x="125.90643310546875" class="er attributeBoxEven"></rect><text style="dominant-baseline: middle; font-size: 10.2px;" transform="translate(130.90643310546875,57)" y="0" x="0" id="text-entity-DEPARTMENT-f31c08cc-ce57-4344-a12c-42fdb9124cbe-attr-2-key" class="er entityLabel"></text><rect height="22" width="35.71875" y="68" x="0" class="er attributeBoxOdd"></rect><text style="dominant-baseline: middle; font-size: 10.2px;" transform="translate(5,79)" y="0" x="0" id="text-entity-DEPARTMENT-f31c08cc-ce57-4344-a12c-42fdb9124cbe-attr-3-type" class="er entityLabel">string</text><rect height="22" width="90.18768310546875" y="68" x="35.71875" class="er attributeBoxOdd"></rect><text style="dominant-baseline: middle; font-size: 10.2px;" transform="translate(40.71875,79)" y="0" x="0" id="text-entity-DEPARTMENT-f31c08cc-ce57-4344-a12c-42fdb9124cbe-attr-3-name" class="er entityLabel">description</text><rect height="22" width="21.68072509765625" y="68" x="125.90643310546875" class="er attributeBoxOdd"></rect><text style="dominant-baseline: middle; font-size: 10.2px;" transform="translate(130.90643310546875,79)" y="0" x="0" id="text-entity-DEPARTMENT-f31c08cc-ce57-4344-a12c-42fdb9124cbe-attr-3-key" class="er entityLabel"></text><rect height="22" width="35.71875" y="90" x="0" class="er attributeBoxEven"></rect><text style="dominant-baseline: middle; font-size: 10.2px;" transform="translate(5,101)" y="0" x="0" id="text-entity-DEPARTMENT-f31c08cc-ce57-4344-a12c-42fdb9124cbe-attr-4-type" class="er entityLabel">string</text><rect height="22" width="90.18768310546875" y="90" x="35.71875" class="er attributeBoxEven"></rect><text style="dominant-baseline: middle; font-size: 10.2px;" transform="translate(40.71875,101)" y="0" x="0" id="text-entity-DEPARTMENT-f31c08cc-ce57-4344-a12c-42fdb9124cbe-attr-4-name" class="er entityLabel">ownerCode</text><rect height="22" width="21.68072509765625" y="90" x="125.90643310546875" class="er attributeBoxEven"></rect><text style="dominant-baseline: middle; font-size: 10.2px;" transform="translate(130.90643310546875,101)" y="0" x="0" id="text-entity-DEPARTMENT-f31c08cc-ce57-4344-a12c-42fdb9124cbe-attr-4-key" class="er entityLabel"></text><rect height="22" width="35.71875" y="112" x="0" class="er attributeBoxOdd"></rect><text style="dominant-baseline: middle; font-size: 10.2px;" transform="translate(5,123)" y="0" x="0" id="text-entity-DEPARTMENT-f31c08cc-ce57-4344-a12c-42fdb9124cbe-attr-5-type" class="er entityLabel">string</text><rect height="22" width="90.18768310546875" y="112" x="35.71875" class="er attributeBoxOdd"></rect><text style="dominant-baseline: middle; font-size: 10.2px;" transform="translate(40.71875,123)" y="0" x="0" id="text-entity-DEPARTMENT-f31c08cc-ce57-4344-a12c-42fdb9124cbe-attr-5-name" class="er entityLabel">ownerName</text><rect height="22" width="21.68072509765625" y="112" x="125.90643310546875" class="er attributeBoxOdd"></rect><text style="dominant-baseline: middle; font-size: 10.2px;" transform="translate(130.90643310546875,123)" y="0" x="0" id="text-entity-DEPARTMENT-f31c08cc-ce57-4344-a12c-42fdb9124cbe-attr-5-key" class="er entityLabel"></text><rect height="22" width="35.71875" y="134" x="0" class="er attributeBoxEven"></rect><text style="dominant-baseline: middle; font-size: 10.2px;" transform="translate(5,145)" y="0" x="0" id="text-entity-DEPARTMENT-f31c08cc-ce57-4344-a12c-42fdb9124cbe-attr-6-type" class="er entityLabel">string</text><rect height="22" width="90.18768310546875" y="134" x="35.71875" class="er attributeBoxEven"></rect><text style="dominant-baseline: middle; font-size: 10.2px;" transform="translate(40.71875,145)" y="0" x="0" id="text-entity-DEPARTMENT-f31c08cc-ce57-4344-a12c-42fdb9124cbe-attr-6-name" class="er entityLabel">costCode</text><rect height="22" width="21.68072509765625" y="134" x="125.90643310546875" class="er attributeBoxEven"></rect><text style="dominant-baseline: middle; font-size: 10.2px;" transform="translate(130.90643310546875,145)" y="0" x="0" id="text-entity-DEPARTMENT-f31c08cc-ce57-4344-a12c-42fdb9124cbe-attr-6-key" class="er entityLabel"></text></g><g transform="translate(366.50150299072266,53 )" id="entity-SUBSCRIPTION-a44fcb2e-0588-456a-bd99-c14cc724cb12"><rect height="90" width="148.7611083984375" y="0" x="0" class="er entityBox"></rect><text style="dominant-baseline: middle; text-anchor: middle; font-size: 12px;" transform="translate(74.38055419921875,12)" y="0" x="0" id="text-entity-SUBSCRIPTION-a44fcb2e-0588-456a-bd99-c14cc724cb12" class="er entityLabel">SUBSCRIPTION</text><rect height="22" width="35.71875" y="24" x="0" class="er attributeBoxOdd"></rect><text style="dominant-baseline: middle; font-size: 10.2px;" transform="translate(5,35)" y="0" x="0" id="text-entity-SUBSCRIPTION-a44fcb2e-0588-456a-bd99-c14cc724cb12-attr-1-type" class="er entityLabel">string</text><rect height="22" width="91.36163330078125" y="24" x="35.71875" class="er attributeBoxOdd"></rect><text style="dominant-baseline: middle; font-size: 10.2px;" transform="translate(40.71875,35)" y="0" x="0" id="text-entity-SUBSCRIPTION-a44fcb2e-0588-456a-bd99-c14cc724cb12-attr-1-name" class="er entityLabel">sCode</text><rect height="22" width="21.68072509765625" y="24" x="127.08038330078125" class="er attributeBoxOdd"></rect><text style="dominant-baseline: middle; font-size: 10.2px;" transform="translate(132.08038330078125,35)" y="0" x="0" id="text-entity-SUBSCRIPTION-a44fcb2e-0588-456a-bd99-c14cc724cb12-attr-1-key" class="er entityLabel">PK</text><rect height="22" width="35.71875" y="46" x="0" class="er attributeBoxEven"></rect><text style="dominant-baseline: middle; font-size: 10.2px;" transform="translate(5,57)" y="0" x="0" id="text-entity-SUBSCRIPTION-a44fcb2e-0588-456a-bd99-c14cc724cb12-attr-2-type" class="er entityLabel">string</text><rect height="22" width="91.36163330078125" y="46" x="35.71875" class="er attributeBoxEven"></rect><text style="dominant-baseline: middle; font-size: 10.2px;" transform="translate(40.71875,57)" y="0" x="0" id="text-entity-SUBSCRIPTION-a44fcb2e-0588-456a-bd99-c14cc724cb12-attr-2-name" class="er entityLabel">subscriptionName</text><rect height="22" width="21.68072509765625" y="46" x="127.08038330078125" class="er attributeBoxEven"></rect><text style="dominant-baseline: middle; font-size: 10.2px;" transform="translate(132.08038330078125,57)" y="0" x="0" id="text-entity-SUBSCRIPTION-a44fcb2e-0588-456a-bd99-c14cc724cb12-attr-2-key" class="er entityLabel"></text><rect height="22" width="35.71875" y="68" x="0" class="er attributeBoxOdd"></rect><text style="dominant-baseline: middle; font-size: 10.2px;" transform="translate(5,79)" y="0" x="0" id="text-entity-SUBSCRIPTION-a44fcb2e-0588-456a-bd99-c14cc724cb12-attr-3-type" class="er entityLabel">string</text><rect height="22" width="91.36163330078125" y="68" x="35.71875" class="er attributeBoxOdd"></rect><text style="dominant-baseline: middle; font-size: 10.2px;" transform="translate(40.71875,79)" y="0" x="0" id="text-entity-SUBSCRIPTION-a44fcb2e-0588-456a-bd99-c14cc724cb12-attr-3-name" class="er entityLabel">description</text><rect height="22" width="21.68072509765625" y="68" x="127.08038330078125" class="er attributeBoxOdd"></rect><text style="dominant-baseline: middle; font-size: 10.2px;" transform="translate(132.08038330078125,79)" y="0" x="0" id="text-entity-SUBSCRIPTION-a44fcb2e-0588-456a-bd99-c14cc724cb12-attr-3-key" class="er entityLabel"></text></g><g transform="translate(308.4728775024414,320 )" id="entity-SUBSCRIPTIONPROJECTS-70c6db62-d32d-450c-8817-17e5dab4a7ed"><rect height="68" width="164.818359375" y="0" x="0" class="er entityBox"></rect><text style="dominant-baseline: middle; text-anchor: middle; font-size: 12px;" transform="translate(82.4091796875,12)" y="0" x="0" id="text-entity-SUBSCRIPTIONPROJECTS-70c6db62-d32d-450c-8817-17e5dab4a7ed" class="er entityLabel">SUBSCRIPTION-PROJECTS</text><rect height="22" width="58.55440266927083" y="24" x="0" class="er attributeBoxOdd"></rect><text style="dominant-baseline: middle; font-size: 10.2px;" transform="translate(5,35)" y="0" x="0" id="text-entity-SUBSCRIPTIONPROJECTS-70c6db62-d32d-450c-8817-17e5dab4a7ed-attr-1-type" class="er entityLabel">string</text><rect height="22" width="61.74757893880208" y="24" x="58.55440266927083" class="er attributeBoxOdd"></rect><text style="dominant-baseline: middle; font-size: 10.2px;" transform="translate(63.55440266927083,35)" y="0" x="0" id="text-entity-SUBSCRIPTIONPROJECTS-70c6db62-d32d-450c-8817-17e5dab4a7ed-attr-1-name" class="er entityLabel">pCode</text><rect height="22" width="44.51637776692708" y="24" x="120.30198160807291" class="er attributeBoxOdd"></rect><text style="dominant-baseline: middle; font-size: 10.2px;" transform="translate(125.30198160807291,35)" y="0" x="0" id="text-entity-SUBSCRIPTIONPROJECTS-70c6db62-d32d-450c-8817-17e5dab4a7ed-attr-1-key" class="er entityLabel">PK</text><rect height="22" width="58.55440266927083" y="46" x="0" class="er attributeBoxEven"></rect><text style="dominant-baseline: middle; font-size: 10.2px;" transform="translate(5,57)" y="0" x="0" id="text-entity-SUBSCRIPTIONPROJECTS-70c6db62-d32d-450c-8817-17e5dab4a7ed-attr-2-type" class="er entityLabel">string</text><rect height="22" width="61.74757893880208" y="46" x="58.55440266927083" class="er attributeBoxEven"></rect><text style="dominant-baseline: middle; font-size: 10.2px;" transform="translate(63.55440266927083,57)" y="0" x="0" id="text-entity-SUBSCRIPTIONPROJECTS-70c6db62-d32d-450c-8817-17e5dab4a7ed-attr-2-name" class="er entityLabel">sCode</text><rect height="22" width="44.51637776692708" y="46" x="120.30198160807291" class="er attributeBoxEven"></rect><text style="dominant-baseline: middle; font-size: 10.2px;" transform="translate(125.30198160807291,57)" y="0" x="0" id="text-entity-SUBSCRIPTIONPROJECTS-70c6db62-d32d-450c-8817-17e5dab4a7ed-attr-2-key" class="er entityLabel">PK</text></g><rect height="14" width="17.861328125" y="217.79116821289062" x="88.35990905761719" class="er relationshipLabelBox"></rect><text style="text-anchor: middle; dominant-baseline: middle; font-size: 12px;" y="224.79116821289062" x="97.29057312011719" id="rel1" class="er relationshipLabel">has</text><rect height="14" width="17.861328125" y="226.69625854492188" x="424.5425109863281" class="er relationshipLabelBox"></rect><text style="text-anchor: middle; dominant-baseline: middle; font-size: 12px;" y="233.69625854492188" x="433.4731750488281" id="rel2" class="er relationshipLabel">has</text><rect height="14" width="8.421875" y="232.88046264648438" x="280.04833984375" class="er relationshipLabelBox"></rect><text style="text-anchor: middle; dominant-baseline: middle; font-size: 12px;" y="239.88046264648438" x="284.25927734375" id="rel3" class="er relationshipLabel">is</text><style>@import url("https://cdnjs.cloudflare.com/ajax/libs/font-awesome/5.15.2/css/all.min.css");</style></svg>